<?xml version="1.0" encoding="utf-8" standalone="no"?>
<!DOCTYPE svg PUBLIC "-//W3C//DTD SVG 1.1//EN"
  "http://www.w3.org/Graphics/SVG/1.1/DTD/svg11.dtd">
<svg xmlns:xlink="http://www.w3.org/1999/xlink" width="576pt" height="288pt" viewBox="0 0 576 288" xmlns="http://www.w3.org/2000/svg" version="1.1">
 <metadata>
  <rdf:RDF xmlns:dc="http://purl.org/dc/elements/1.1/" xmlns:cc="http://creativecommons.org/ns#" xmlns:rdf="http://www.w3.org/1999/02/22-rdf-syntax-ns#">
   <cc:Work>
    <dc:type rdf:resource="http://purl.org/dc/dcmitype/StillImage"/>
    <dc:date>2025-03-30T00:39:56.136193</dc:date>
    <dc:format>image/svg+xml</dc:format>
    <dc:creator>
     <cc:Agent>
      <dc:title>Matplotlib v3.10.1, https://matplotlib.org/</dc:title>
     </cc:Agent>
    </dc:creator>
   </cc:Work>
  </rdf:RDF>
 </metadata>
 <defs>
  <style type="text/css">*{stroke-linejoin: round; stroke-linecap: butt}</style>
 </defs>
 <g id="figure_1">
  <g id="patch_1">
   <path d="M 0 288 
L 576 288 
L 576 0 
L 0 0 
z
" style="fill: #ffffff"/>
  </g>
  <g id="axes_1">
   <g id="patch_2">
    <path d="M 72 256.32 
L 518.4 256.32 
L 518.4 34.56 
L 72 34.56 
z
" style="fill: #ffffff"/>
   </g>
   <g id="FillBetweenPolyCollection_1">
    <defs>
     <path id="me925e7c96b" d="M 92.290909 -75.404942 
L 92.290909 -61.492539 
L 139.768593 -63.223541 
L 173.454545 -64.821953 
L 199.5834 -66.427069 
L 220.932229 -68.871945 
L 238.982407 -70.907735 
L 254.618182 -72.92615 
L 291.907323 -75.746018 
L 335.781818 -81.197986 
L 373.070959 -84.738979 
L 416.945455 -94.261352 
L 456.86604 -105.741496 
L 498.109091 -118.36992 
L 498.109091 -148.745498 
L 498.109091 -148.745498 
L 456.86604 -132.795642 
L 416.945455 -119.171013 
L 373.070959 -106.791486 
L 335.781818 -97.196532 
L 291.907323 -89.192188 
L 254.618182 -83.079468 
L 238.982407 -81.264288 
L 220.932229 -80.246531 
L 199.5834 -78.816216 
L 173.454545 -77.286012 
L 139.768593 -77.015731 
L 92.290909 -75.404942 
z
" style="stroke: #1f77b4; stroke-opacity: 0.2"/>
    </defs>
    <g clip-path="url(#pdba6f76814)">
     <use xlink:href="#me925e7c96b" x="0" y="288" style="fill: #1f77b4; fill-opacity: 0.2; stroke: #1f77b4; stroke-opacity: 0.2"/>
    </g>
   </g>
   <g id="FillBetweenPolyCollection_2">
    <defs>
     <path id="maaf0776a6d" d="M 92.290909 -63.766331 
L 92.290909 -49.643406 
L 139.768593 -57.871996 
L 173.454545 -65.458204 
L 199.5834 -72.912837 
L 220.932229 -80.166746 
L 238.982407 -85.998853 
L 254.618182 -90.9164 
L 291.907323 -103.969834 
L 335.781818 -118.527502 
L 373.070959 -130.218351 
L 416.945455 -146.246121 
L 456.86604 -161.00483 
L 498.109091 -173.922814 
L 498.109091 -175.779796 
L 498.109091 -175.779796 
L 456.86604 -162.35911 
L 416.945455 -147.253189 
L 373.070959 -132.046276 
L 335.781818 -119.88227 
L 291.907323 -106.687661 
L 254.618182 -92.81156 
L 238.982407 -90.200189 
L 220.932229 -84.634474 
L 199.5834 -78.356864 
L 173.454545 -73.046723 
L 139.768593 -68.071256 
L 92.290909 -63.766331 
z
" style="stroke: #ff7f0e; stroke-opacity: 0.2"/>
    </defs>
    <g clip-path="url(#pdba6f76814)">
     <use xlink:href="#maaf0776a6d" x="0" y="288" style="fill: #ff7f0e; fill-opacity: 0.2; stroke: #ff7f0e; stroke-opacity: 0.2"/>
    </g>
   </g>
   <g id="FillBetweenPolyCollection_3">
    <defs>
     <path id="mb4b464df50" d="M 92.290909 -76.324863 
L 92.290909 -47.288449 
L 139.768593 -50.231107 
L 173.454545 -51.302955 
L 199.5834 -56.435106 
L 220.932229 -62.25889 
L 238.982407 -64.657984 
L 254.618182 -65.419515 
L 291.907323 -74.206159 
L 335.781818 -96.103157 
L 373.070959 -101.669719 
L 416.945455 -116.029589 
L 456.86604 -125.496298 
L 498.109091 -143.366304 
L 498.109091 -151.32389 
L 498.109091 -151.32389 
L 456.86604 -134.681392 
L 416.945455 -123.328329 
L 373.070959 -110.023905 
L 335.781818 -101.774918 
L 291.907323 -85.631465 
L 254.618182 -81.792091 
L 238.982407 -85.240134 
L 220.932229 -82.395996 
L 199.5834 -77.685947 
L 173.454545 -77.328969 
L 139.768593 -77.647605 
L 92.290909 -76.324863 
z
" style="stroke: #2ca02c; stroke-opacity: 0.2"/>
    </defs>
    <g clip-path="url(#pdba6f76814)">
     <use xlink:href="#mb4b464df50" x="0" y="288" style="fill: #2ca02c; fill-opacity: 0.2; stroke: #2ca02c; stroke-opacity: 0.2"/>
    </g>
   </g>
   <g id="FillBetweenPolyCollection_4">
    <defs>
     <path id="m246ddda843" d="M 92.290909 -75.811522 
L 92.290909 -51.291649 
L 139.768593 -62.687245 
L 173.454545 -74.640293 
L 199.5834 -81.70233 
L 220.932229 -93.016762 
L 238.982407 -100.743924 
L 254.618182 -117.916598 
L 291.907323 -131.104531 
L 335.781818 -154.256925 
L 373.070959 -155.039477 
L 416.945455 -175.676766 
L 456.86604 -211.26185 
L 498.109091 -228.560283 
L 498.109091 -243.36 
L 498.109091 -243.36 
L 456.86604 -220.522596 
L 416.945455 -187.377999 
L 373.070959 -165.93931 
L 335.781818 -162.587882 
L 291.907323 -144.292471 
L 254.618182 -131.042918 
L 238.982407 -110.996333 
L 220.932229 -97.903292 
L 199.5834 -89.44773 
L 173.454545 -84.010014 
L 139.768593 -79.636882 
L 92.290909 -75.811522 
z
" style="stroke: #d62728; stroke-opacity: 0.2"/>
    </defs>
    <g clip-path="url(#pdba6f76814)">
     <use xlink:href="#m246ddda843" x="0" y="288" style="fill: #d62728; fill-opacity: 0.2; stroke: #d62728; stroke-opacity: 0.2"/>
    </g>
   </g>
   <g id="FillBetweenPolyCollection_5">
    <defs>
     <path id="m3e630ae79e" d="M 92.290909 -75.210315 
L 92.290909 -45.41189 
L 139.768593 -46.695531 
L 173.454545 -51.134288 
L 199.5834 -51.213018 
L 220.932229 -58.711918 
L 238.982407 -63.023065 
L 254.618182 -62.200081 
L 291.907323 -72.309771 
L 335.781818 -84.578481 
L 373.070959 -95.635193 
L 416.945455 -115.696184 
L 456.86604 -112.179269 
L 498.109091 -137.124783 
L 498.109091 -145.763829 
L 498.109091 -145.763829 
L 456.86604 -131.635374 
L 416.945455 -125.179108 
L 373.070959 -103.005356 
L 335.781818 -91.51112 
L 291.907323 -83.119106 
L 254.618182 -77.692006 
L 238.982407 -81.817036 
L 220.932229 -77.882373 
L 199.5834 -75.78075 
L 173.454545 -76.512041 
L 139.768593 -76.023424 
L 92.290909 -75.210315 
z
" style="stroke: #9467bd; stroke-opacity: 0.2"/>
    </defs>
    <g clip-path="url(#pdba6f76814)">
     <use xlink:href="#m3e630ae79e" x="0" y="288" style="fill: #9467bd; fill-opacity: 0.2; stroke: #9467bd; stroke-opacity: 0.2"/>
    </g>
   </g>
   <g id="FillBetweenPolyCollection_6">
    <defs>
     <path id="mb0a6b62cc4" d="M 92.290909 -63.346158 
L 92.290909 -41.76 
L 139.768593 -51.662701 
L 173.454545 -62.37603 
L 199.5834 -69.59916 
L 220.932229 -78.933911 
L 238.982407 -83.663838 
L 254.618182 -89.580451 
L 291.907323 -103.035164 
L 335.781818 -118.751976 
L 373.070959 -131.978518 
L 416.945455 -148.322886 
L 456.86604 -162.215452 
L 498.109091 -177.094427 
L 498.109091 -177.943403 
L 498.109091 -177.943403 
L 456.86604 -162.440959 
L 416.945455 -149.163478 
L 373.070959 -132.211273 
L 335.781818 -119.103021 
L 291.907323 -104.555627 
L 254.618182 -92.663019 
L 238.982407 -87.487163 
L 220.932229 -83.369629 
L 199.5834 -76.989029 
L 173.454545 -73.497939 
L 139.768593 -66.91614 
L 92.290909 -63.346158 
z
" style="stroke: #8c564b; stroke-opacity: 0.2"/>
    </defs>
    <g clip-path="url(#pdba6f76814)">
     <use xlink:href="#mb0a6b62cc4" x="0" y="288" style="fill: #8c564b; fill-opacity: 0.2; stroke: #8c564b; stroke-opacity: 0.2"/>
    </g>
   </g>
   <g id="matplotlib.axis_1">
    <g id="xtick_1">
     <g id="line2d_1">
      <path d="M 92.290909 256.32 
L 92.290909 34.56 
" clip-path="url(#pdba6f76814)" style="fill: none; stroke: #b0b0b0; stroke-width: 0.8; stroke-linecap: square"/>
     </g>
     <g id="line2d_2">
      <defs>
       <path id="mda90fd6315" d="M 0 0 
L 0 3.5 
" style="stroke: #000000; stroke-width: 0.8"/>
      </defs>
      <g>
       <use xlink:href="#mda90fd6315" x="92.290909" y="256.32" style="stroke: #000000; stroke-width: 0.8"/>
      </g>
     </g>
     <g id="text_1">
      <!-- 2 -->
      <g transform="translate(89.109659 270.918437) scale(0.1 -0.1)">
       <defs>
        <path id="DejaVuSans-32" d="M 1228 531 
L 3431 531 
L 3431 0 
L 469 0 
L 469 531 
Q 828 903 1448 1529 
Q 2069 2156 2228 2338 
Q 2531 2678 2651 2914 
Q 2772 3150 2772 3378 
Q 2772 3750 2511 3984 
Q 2250 4219 1831 4219 
Q 1534 4219 1204 4116 
Q 875 4013 500 3803 
L 500 4441 
Q 881 4594 1212 4672 
Q 1544 4750 1819 4750 
Q 2544 4750 2975 4387 
Q 3406 4025 3406 3419 
Q 3406 3131 3298 2873 
Q 3191 2616 2906 2266 
Q 2828 2175 2409 1742 
Q 1991 1309 1228 531 
z
" transform="scale(0.015625)"/>
       </defs>
       <use xlink:href="#DejaVuSans-32"/>
      </g>
     </g>
    </g>
    <g id="xtick_2">
     <g id="line2d_3">
      <path d="M 173.454545 256.32 
L 173.454545 34.56 
" clip-path="url(#pdba6f76814)" style="fill: none; stroke: #b0b0b0; stroke-width: 0.8; stroke-linecap: square"/>
     </g>
     <g id="line2d_4">
      <g>
       <use xlink:href="#mda90fd6315" x="173.454545" y="256.32" style="stroke: #000000; stroke-width: 0.8"/>
      </g>
     </g>
     <g id="text_2">
      <!-- 4 -->
      <g transform="translate(170.273295 270.918437) scale(0.1 -0.1)">
       <defs>
        <path id="DejaVuSans-34" d="M 2419 4116 
L 825 1625 
L 2419 1625 
L 2419 4116 
z
M 2253 4666 
L 3047 4666 
L 3047 1625 
L 3713 1625 
L 3713 1100 
L 3047 1100 
L 3047 0 
L 2419 0 
L 2419 1100 
L 313 1100 
L 313 1709 
L 2253 4666 
z
" transform="scale(0.015625)"/>
       </defs>
       <use xlink:href="#DejaVuSans-34"/>
      </g>
     </g>
    </g>
    <g id="xtick_3">
     <g id="line2d_5">
      <path d="M 254.618182 256.32 
L 254.618182 34.56 
" clip-path="url(#pdba6f76814)" style="fill: none; stroke: #b0b0b0; stroke-width: 0.8; stroke-linecap: square"/>
     </g>
     <g id="line2d_6">
      <g>
       <use xlink:href="#mda90fd6315" x="254.618182" y="256.32" style="stroke: #000000; stroke-width: 0.8"/>
      </g>
     </g>
     <g id="text_3">
      <!-- 8 -->
      <g transform="translate(251.436932 270.918437) scale(0.1 -0.1)">
       <defs>
        <path id="DejaVuSans-38" d="M 2034 2216 
Q 1584 2216 1326 1975 
Q 1069 1734 1069 1313 
Q 1069 891 1326 650 
Q 1584 409 2034 409 
Q 2484 409 2743 651 
Q 3003 894 3003 1313 
Q 3003 1734 2745 1975 
Q 2488 2216 2034 2216 
z
M 1403 2484 
Q 997 2584 770 2862 
Q 544 3141 544 3541 
Q 544 4100 942 4425 
Q 1341 4750 2034 4750 
Q 2731 4750 3128 4425 
Q 3525 4100 3525 3541 
Q 3525 3141 3298 2862 
Q 3072 2584 2669 2484 
Q 3125 2378 3379 2068 
Q 3634 1759 3634 1313 
Q 3634 634 3220 271 
Q 2806 -91 2034 -91 
Q 1263 -91 848 271 
Q 434 634 434 1313 
Q 434 1759 690 2068 
Q 947 2378 1403 2484 
z
M 1172 3481 
Q 1172 3119 1398 2916 
Q 1625 2713 2034 2713 
Q 2441 2713 2670 2916 
Q 2900 3119 2900 3481 
Q 2900 3844 2670 4047 
Q 2441 4250 2034 4250 
Q 1625 4250 1398 4047 
Q 1172 3844 1172 3481 
z
" transform="scale(0.015625)"/>
       </defs>
       <use xlink:href="#DejaVuSans-38"/>
      </g>
     </g>
    </g>
    <g id="xtick_4">
     <g id="line2d_7">
      <path d="M 335.781818 256.32 
L 335.781818 34.56 
" clip-path="url(#pdba6f76814)" style="fill: none; stroke: #b0b0b0; stroke-width: 0.8; stroke-linecap: square"/>
     </g>
     <g id="line2d_8">
      <g>
       <use xlink:href="#mda90fd6315" x="335.781818" y="256.32" style="stroke: #000000; stroke-width: 0.8"/>
      </g>
     </g>
     <g id="text_4">
      <!-- 16 -->
      <g transform="translate(329.419318 270.918437) scale(0.1 -0.1)">
       <defs>
        <path id="DejaVuSans-31" d="M 794 531 
L 1825 531 
L 1825 4091 
L 703 3866 
L 703 4441 
L 1819 4666 
L 2450 4666 
L 2450 531 
L 3481 531 
L 3481 0 
L 794 0 
L 794 531 
z
" transform="scale(0.015625)"/>
        <path id="DejaVuSans-36" d="M 2113 2584 
Q 1688 2584 1439 2293 
Q 1191 2003 1191 1497 
Q 1191 994 1439 701 
Q 1688 409 2113 409 
Q 2538 409 2786 701 
Q 3034 994 3034 1497 
Q 3034 2003 2786 2293 
Q 2538 2584 2113 2584 
z
M 3366 4563 
L 3366 3988 
Q 3128 4100 2886 4159 
Q 2644 4219 2406 4219 
Q 1781 4219 1451 3797 
Q 1122 3375 1075 2522 
Q 1259 2794 1537 2939 
Q 1816 3084 2150 3084 
Q 2853 3084 3261 2657 
Q 3669 2231 3669 1497 
Q 3669 778 3244 343 
Q 2819 -91 2113 -91 
Q 1303 -91 875 529 
Q 447 1150 447 2328 
Q 447 3434 972 4092 
Q 1497 4750 2381 4750 
Q 2619 4750 2861 4703 
Q 3103 4656 3366 4563 
z
" transform="scale(0.015625)"/>
       </defs>
       <use xlink:href="#DejaVuSans-31"/>
       <use xlink:href="#DejaVuSans-36" transform="translate(63.623047 0)"/>
      </g>
     </g>
    </g>
    <g id="xtick_5">
     <g id="line2d_9">
      <path d="M 416.945455 256.32 
L 416.945455 34.56 
" clip-path="url(#pdba6f76814)" style="fill: none; stroke: #b0b0b0; stroke-width: 0.8; stroke-linecap: square"/>
     </g>
     <g id="line2d_10">
      <g>
       <use xlink:href="#mda90fd6315" x="416.945455" y="256.32" style="stroke: #000000; stroke-width: 0.8"/>
      </g>
     </g>
     <g id="text_5">
      <!-- 32 -->
      <g transform="translate(410.582955 270.918437) scale(0.1 -0.1)">
       <defs>
        <path id="DejaVuSans-33" d="M 2597 2516 
Q 3050 2419 3304 2112 
Q 3559 1806 3559 1356 
Q 3559 666 3084 287 
Q 2609 -91 1734 -91 
Q 1441 -91 1130 -33 
Q 819 25 488 141 
L 488 750 
Q 750 597 1062 519 
Q 1375 441 1716 441 
Q 2309 441 2620 675 
Q 2931 909 2931 1356 
Q 2931 1769 2642 2001 
Q 2353 2234 1838 2234 
L 1294 2234 
L 1294 2753 
L 1863 2753 
Q 2328 2753 2575 2939 
Q 2822 3125 2822 3475 
Q 2822 3834 2567 4026 
Q 2313 4219 1838 4219 
Q 1578 4219 1281 4162 
Q 984 4106 628 3988 
L 628 4550 
Q 988 4650 1302 4700 
Q 1616 4750 1894 4750 
Q 2613 4750 3031 4423 
Q 3450 4097 3450 3541 
Q 3450 3153 3228 2886 
Q 3006 2619 2597 2516 
z
" transform="scale(0.015625)"/>
       </defs>
       <use xlink:href="#DejaVuSans-33"/>
       <use xlink:href="#DejaVuSans-32" transform="translate(63.623047 0)"/>
      </g>
     </g>
    </g>
    <g id="xtick_6">
     <g id="line2d_11">
      <path d="M 498.109091 256.32 
L 498.109091 34.56 
" clip-path="url(#pdba6f76814)" style="fill: none; stroke: #b0b0b0; stroke-width: 0.8; stroke-linecap: square"/>
     </g>
     <g id="line2d_12">
      <g>
       <use xlink:href="#mda90fd6315" x="498.109091" y="256.32" style="stroke: #000000; stroke-width: 0.8"/>
      </g>
     </g>
     <g id="text_6">
      <!-- 64 -->
      <g transform="translate(491.746591 270.918437) scale(0.1 -0.1)">
       <use xlink:href="#DejaVuSans-36"/>
       <use xlink:href="#DejaVuSans-34" transform="translate(63.623047 0)"/>
      </g>
     </g>
    </g>
    <g id="xtick_7">
     <g id="line2d_13">
      <defs>
       <path id="meefb3ffa2c" d="M 0 0 
L 0 2 
" style="stroke: #000000; stroke-width: 0.6"/>
      </defs>
      <g>
       <use xlink:href="#meefb3ffa2c" x="139.768593" y="256.32" style="stroke: #000000; stroke-width: 0.6"/>
      </g>
     </g>
    </g>
    <g id="xtick_8">
     <g id="line2d_14">
      <g>
       <use xlink:href="#meefb3ffa2c" x="199.5834" y="256.32" style="stroke: #000000; stroke-width: 0.6"/>
      </g>
     </g>
    </g>
    <g id="xtick_9">
     <g id="line2d_15">
      <g>
       <use xlink:href="#meefb3ffa2c" x="220.932229" y="256.32" style="stroke: #000000; stroke-width: 0.6"/>
      </g>
     </g>
    </g>
    <g id="xtick_10">
     <g id="line2d_16">
      <g>
       <use xlink:href="#meefb3ffa2c" x="238.982407" y="256.32" style="stroke: #000000; stroke-width: 0.6"/>
      </g>
     </g>
    </g>
    <g id="xtick_11">
     <g id="line2d_17">
      <g>
       <use xlink:href="#meefb3ffa2c" x="268.409913" y="256.32" style="stroke: #000000; stroke-width: 0.6"/>
      </g>
     </g>
    </g>
    <g id="xtick_12">
     <g id="line2d_18">
      <g>
       <use xlink:href="#meefb3ffa2c" x="361.910673" y="256.32" style="stroke: #000000; stroke-width: 0.6"/>
      </g>
     </g>
    </g>
    <g id="xtick_13">
     <g id="line2d_19">
      <g>
       <use xlink:href="#meefb3ffa2c" x="409.388357" y="256.32" style="stroke: #000000; stroke-width: 0.6"/>
      </g>
     </g>
    </g>
    <g id="xtick_14">
     <g id="line2d_20">
      <g>
       <use xlink:href="#meefb3ffa2c" x="443.074309" y="256.32" style="stroke: #000000; stroke-width: 0.6"/>
      </g>
     </g>
    </g>
    <g id="xtick_15">
     <g id="line2d_21">
      <g>
       <use xlink:href="#meefb3ffa2c" x="469.203164" y="256.32" style="stroke: #000000; stroke-width: 0.6"/>
      </g>
     </g>
    </g>
    <g id="xtick_16">
     <g id="line2d_22">
      <g>
       <use xlink:href="#meefb3ffa2c" x="490.551993" y="256.32" style="stroke: #000000; stroke-width: 0.6"/>
      </g>
     </g>
    </g>
    <g id="xtick_17">
     <g id="line2d_23">
      <g>
       <use xlink:href="#meefb3ffa2c" x="508.602171" y="256.32" style="stroke: #000000; stroke-width: 0.6"/>
      </g>
     </g>
    </g>
    <g id="text_7">
     <!-- Maze Size (grid_n) -->
     <g transform="translate(249.315625 284.596563) scale(0.1 -0.1)">
      <defs>
       <path id="DejaVuSans-4d" d="M 628 4666 
L 1569 4666 
L 2759 1491 
L 3956 4666 
L 4897 4666 
L 4897 0 
L 4281 0 
L 4281 4097 
L 3078 897 
L 2444 897 
L 1241 4097 
L 1241 0 
L 628 0 
L 628 4666 
z
" transform="scale(0.015625)"/>
       <path id="DejaVuSans-61" d="M 2194 1759 
Q 1497 1759 1228 1600 
Q 959 1441 959 1056 
Q 959 750 1161 570 
Q 1363 391 1709 391 
Q 2188 391 2477 730 
Q 2766 1069 2766 1631 
L 2766 1759 
L 2194 1759 
z
M 3341 1997 
L 3341 0 
L 2766 0 
L 2766 531 
Q 2569 213 2275 61 
Q 1981 -91 1556 -91 
Q 1019 -91 701 211 
Q 384 513 384 1019 
Q 384 1609 779 1909 
Q 1175 2209 1959 2209 
L 2766 2209 
L 2766 2266 
Q 2766 2663 2505 2880 
Q 2244 3097 1772 3097 
Q 1472 3097 1187 3025 
Q 903 2953 641 2809 
L 641 3341 
Q 956 3463 1253 3523 
Q 1550 3584 1831 3584 
Q 2591 3584 2966 3190 
Q 3341 2797 3341 1997 
z
" transform="scale(0.015625)"/>
       <path id="DejaVuSans-7a" d="M 353 3500 
L 3084 3500 
L 3084 2975 
L 922 459 
L 3084 459 
L 3084 0 
L 275 0 
L 275 525 
L 2438 3041 
L 353 3041 
L 353 3500 
z
" transform="scale(0.015625)"/>
       <path id="DejaVuSans-65" d="M 3597 1894 
L 3597 1613 
L 953 1613 
Q 991 1019 1311 708 
Q 1631 397 2203 397 
Q 2534 397 2845 478 
Q 3156 559 3463 722 
L 3463 178 
Q 3153 47 2828 -22 
Q 2503 -91 2169 -91 
Q 1331 -91 842 396 
Q 353 884 353 1716 
Q 353 2575 817 3079 
Q 1281 3584 2069 3584 
Q 2775 3584 3186 3129 
Q 3597 2675 3597 1894 
z
M 3022 2063 
Q 3016 2534 2758 2815 
Q 2500 3097 2075 3097 
Q 1594 3097 1305 2825 
Q 1016 2553 972 2059 
L 3022 2063 
z
" transform="scale(0.015625)"/>
       <path id="DejaVuSans-20" transform="scale(0.015625)"/>
       <path id="DejaVuSans-53" d="M 3425 4513 
L 3425 3897 
Q 3066 4069 2747 4153 
Q 2428 4238 2131 4238 
Q 1616 4238 1336 4038 
Q 1056 3838 1056 3469 
Q 1056 3159 1242 3001 
Q 1428 2844 1947 2747 
L 2328 2669 
Q 3034 2534 3370 2195 
Q 3706 1856 3706 1288 
Q 3706 609 3251 259 
Q 2797 -91 1919 -91 
Q 1588 -91 1214 -16 
Q 841 59 441 206 
L 441 856 
Q 825 641 1194 531 
Q 1563 422 1919 422 
Q 2459 422 2753 634 
Q 3047 847 3047 1241 
Q 3047 1584 2836 1778 
Q 2625 1972 2144 2069 
L 1759 2144 
Q 1053 2284 737 2584 
Q 422 2884 422 3419 
Q 422 4038 858 4394 
Q 1294 4750 2059 4750 
Q 2388 4750 2728 4690 
Q 3069 4631 3425 4513 
z
" transform="scale(0.015625)"/>
       <path id="DejaVuSans-69" d="M 603 3500 
L 1178 3500 
L 1178 0 
L 603 0 
L 603 3500 
z
M 603 4863 
L 1178 4863 
L 1178 4134 
L 603 4134 
L 603 4863 
z
" transform="scale(0.015625)"/>
       <path id="DejaVuSans-28" d="M 1984 4856 
Q 1566 4138 1362 3434 
Q 1159 2731 1159 2009 
Q 1159 1288 1364 580 
Q 1569 -128 1984 -844 
L 1484 -844 
Q 1016 -109 783 600 
Q 550 1309 550 2009 
Q 550 2706 781 3412 
Q 1013 4119 1484 4856 
L 1984 4856 
z
" transform="scale(0.015625)"/>
       <path id="DejaVuSans-67" d="M 2906 1791 
Q 2906 2416 2648 2759 
Q 2391 3103 1925 3103 
Q 1463 3103 1205 2759 
Q 947 2416 947 1791 
Q 947 1169 1205 825 
Q 1463 481 1925 481 
Q 2391 481 2648 825 
Q 2906 1169 2906 1791 
z
M 3481 434 
Q 3481 -459 3084 -895 
Q 2688 -1331 1869 -1331 
Q 1566 -1331 1297 -1286 
Q 1028 -1241 775 -1147 
L 775 -588 
Q 1028 -725 1275 -790 
Q 1522 -856 1778 -856 
Q 2344 -856 2625 -561 
Q 2906 -266 2906 331 
L 2906 616 
Q 2728 306 2450 153 
Q 2172 0 1784 0 
Q 1141 0 747 490 
Q 353 981 353 1791 
Q 353 2603 747 3093 
Q 1141 3584 1784 3584 
Q 2172 3584 2450 3431 
Q 2728 3278 2906 2969 
L 2906 3500 
L 3481 3500 
L 3481 434 
z
" transform="scale(0.015625)"/>
       <path id="DejaVuSans-72" d="M 2631 2963 
Q 2534 3019 2420 3045 
Q 2306 3072 2169 3072 
Q 1681 3072 1420 2755 
Q 1159 2438 1159 1844 
L 1159 0 
L 581 0 
L 581 3500 
L 1159 3500 
L 1159 2956 
Q 1341 3275 1631 3429 
Q 1922 3584 2338 3584 
Q 2397 3584 2469 3576 
Q 2541 3569 2628 3553 
L 2631 2963 
z
" transform="scale(0.015625)"/>
       <path id="DejaVuSans-64" d="M 2906 2969 
L 2906 4863 
L 3481 4863 
L 3481 0 
L 2906 0 
L 2906 525 
Q 2725 213 2448 61 
Q 2172 -91 1784 -91 
Q 1150 -91 751 415 
Q 353 922 353 1747 
Q 353 2572 751 3078 
Q 1150 3584 1784 3584 
Q 2172 3584 2448 3432 
Q 2725 3281 2906 2969 
z
M 947 1747 
Q 947 1113 1208 752 
Q 1469 391 1925 391 
Q 2381 391 2643 752 
Q 2906 1113 2906 1747 
Q 2906 2381 2643 2742 
Q 2381 3103 1925 3103 
Q 1469 3103 1208 2742 
Q 947 2381 947 1747 
z
" transform="scale(0.015625)"/>
       <path id="DejaVuSans-5f" d="M 3263 -1063 
L 3263 -1509 
L -63 -1509 
L -63 -1063 
L 3263 -1063 
z
" transform="scale(0.015625)"/>
       <path id="DejaVuSans-6e" d="M 3513 2113 
L 3513 0 
L 2938 0 
L 2938 2094 
Q 2938 2591 2744 2837 
Q 2550 3084 2163 3084 
Q 1697 3084 1428 2787 
Q 1159 2491 1159 1978 
L 1159 0 
L 581 0 
L 581 3500 
L 1159 3500 
L 1159 2956 
Q 1366 3272 1645 3428 
Q 1925 3584 2291 3584 
Q 2894 3584 3203 3211 
Q 3513 2838 3513 2113 
z
" transform="scale(0.015625)"/>
       <path id="DejaVuSans-29" d="M 513 4856 
L 1013 4856 
Q 1481 4119 1714 3412 
Q 1947 2706 1947 2009 
Q 1947 1309 1714 600 
Q 1481 -109 1013 -844 
L 513 -844 
Q 928 -128 1133 580 
Q 1338 1288 1338 2009 
Q 1338 2731 1133 3434 
Q 928 4138 513 4856 
z
" transform="scale(0.015625)"/>
      </defs>
      <use xlink:href="#DejaVuSans-4d"/>
      <use xlink:href="#DejaVuSans-61" transform="translate(86.279297 0)"/>
      <use xlink:href="#DejaVuSans-7a" transform="translate(147.558594 0)"/>
      <use xlink:href="#DejaVuSans-65" transform="translate(200.048828 0)"/>
      <use xlink:href="#DejaVuSans-20" transform="translate(261.572266 0)"/>
      <use xlink:href="#DejaVuSans-53" transform="translate(293.359375 0)"/>
      <use xlink:href="#DejaVuSans-69" transform="translate(356.835938 0)"/>
      <use xlink:href="#DejaVuSans-7a" transform="translate(384.619141 0)"/>
      <use xlink:href="#DejaVuSans-65" transform="translate(437.109375 0)"/>
      <use xlink:href="#DejaVuSans-20" transform="translate(498.632812 0)"/>
      <use xlink:href="#DejaVuSans-28" transform="translate(530.419922 0)"/>
      <use xlink:href="#DejaVuSans-67" transform="translate(569.433594 0)"/>
      <use xlink:href="#DejaVuSans-72" transform="translate(632.910156 0)"/>
      <use xlink:href="#DejaVuSans-69" transform="translate(674.023438 0)"/>
      <use xlink:href="#DejaVuSans-64" transform="translate(701.806641 0)"/>
      <use xlink:href="#DejaVuSans-5f" transform="translate(765.283203 0)"/>
      <use xlink:href="#DejaVuSans-6e" transform="translate(815.283203 0)"/>
      <use xlink:href="#DejaVuSans-29" transform="translate(878.662109 0)"/>
     </g>
    </g>
   </g>
   <g id="matplotlib.axis_2">
    <g id="ytick_1">
     <g id="line2d_24">
      <path d="M 72 231.400315 
L 518.4 231.400315 
" clip-path="url(#pdba6f76814)" style="fill: none; stroke: #b0b0b0; stroke-width: 0.8; stroke-linecap: square"/>
     </g>
     <g id="line2d_25">
      <defs>
       <path id="mc60635286c" d="M 0 0 
L -3.5 0 
" style="stroke: #000000; stroke-width: 0.8"/>
      </defs>
      <g>
       <use xlink:href="#mc60635286c" x="72" y="231.400315" style="stroke: #000000; stroke-width: 0.8"/>
      </g>
     </g>
     <g id="text_8">
      <!-- $\mathdefault{10^{0}}$ -->
      <g transform="translate(47.4 235.199534) scale(0.1 -0.1)">
       <defs>
        <path id="DejaVuSans-30" d="M 2034 4250 
Q 1547 4250 1301 3770 
Q 1056 3291 1056 2328 
Q 1056 1369 1301 889 
Q 1547 409 2034 409 
Q 2525 409 2770 889 
Q 3016 1369 3016 2328 
Q 3016 3291 2770 3770 
Q 2525 4250 2034 4250 
z
M 2034 4750 
Q 2819 4750 3233 4129 
Q 3647 3509 3647 2328 
Q 3647 1150 3233 529 
Q 2819 -91 2034 -91 
Q 1250 -91 836 529 
Q 422 1150 422 2328 
Q 422 3509 836 4129 
Q 1250 4750 2034 4750 
z
" transform="scale(0.015625)"/>
       </defs>
       <use xlink:href="#DejaVuSans-31" transform="translate(0 0.765625)"/>
       <use xlink:href="#DejaVuSans-30" transform="translate(63.623047 0.765625)"/>
       <use xlink:href="#DejaVuSans-30" transform="translate(128.203125 39.046875) scale(0.7)"/>
      </g>
     </g>
    </g>
    <g id="ytick_2">
     <g id="line2d_26">
      <path d="M 72 183.31044 
L 518.4 183.31044 
" clip-path="url(#pdba6f76814)" style="fill: none; stroke: #b0b0b0; stroke-width: 0.8; stroke-linecap: square"/>
     </g>
     <g id="line2d_27">
      <g>
       <use xlink:href="#mc60635286c" x="72" y="183.31044" style="stroke: #000000; stroke-width: 0.8"/>
      </g>
     </g>
     <g id="text_9">
      <!-- $\mathdefault{10^{1}}$ -->
      <g transform="translate(47.4 187.109659) scale(0.1 -0.1)">
       <use xlink:href="#DejaVuSans-31" transform="translate(0 0.684375)"/>
       <use xlink:href="#DejaVuSans-30" transform="translate(63.623047 0.684375)"/>
       <use xlink:href="#DejaVuSans-31" transform="translate(128.203125 38.965625) scale(0.7)"/>
      </g>
     </g>
    </g>
    <g id="ytick_3">
     <g id="line2d_28">
      <path d="M 72 135.220565 
L 518.4 135.220565 
" clip-path="url(#pdba6f76814)" style="fill: none; stroke: #b0b0b0; stroke-width: 0.8; stroke-linecap: square"/>
     </g>
     <g id="line2d_29">
      <g>
       <use xlink:href="#mc60635286c" x="72" y="135.220565" style="stroke: #000000; stroke-width: 0.8"/>
      </g>
     </g>
     <g id="text_10">
      <!-- $\mathdefault{10^{2}}$ -->
      <g transform="translate(47.4 139.019784) scale(0.1 -0.1)">
       <use xlink:href="#DejaVuSans-31" transform="translate(0 0.765625)"/>
       <use xlink:href="#DejaVuSans-30" transform="translate(63.623047 0.765625)"/>
       <use xlink:href="#DejaVuSans-32" transform="translate(128.203125 39.046875) scale(0.7)"/>
      </g>
     </g>
    </g>
    <g id="ytick_4">
     <g id="line2d_30">
      <path d="M 72 87.13069 
L 518.4 87.13069 
" clip-path="url(#pdba6f76814)" style="fill: none; stroke: #b0b0b0; stroke-width: 0.8; stroke-linecap: square"/>
     </g>
     <g id="line2d_31">
      <g>
       <use xlink:href="#mc60635286c" x="72" y="87.13069" style="stroke: #000000; stroke-width: 0.8"/>
      </g>
     </g>
     <g id="text_11">
      <!-- $\mathdefault{10^{3}}$ -->
      <g transform="translate(47.4 90.929908) scale(0.1 -0.1)">
       <use xlink:href="#DejaVuSans-31" transform="translate(0 0.765625)"/>
       <use xlink:href="#DejaVuSans-30" transform="translate(63.623047 0.765625)"/>
       <use xlink:href="#DejaVuSans-33" transform="translate(128.203125 39.046875) scale(0.7)"/>
      </g>
     </g>
    </g>
    <g id="ytick_5">
     <g id="line2d_32">
      <path d="M 72 39.040814 
L 518.4 39.040814 
" clip-path="url(#pdba6f76814)" style="fill: none; stroke: #b0b0b0; stroke-width: 0.8; stroke-linecap: square"/>
     </g>
     <g id="line2d_33">
      <g>
       <use xlink:href="#mc60635286c" x="72" y="39.040814" style="stroke: #000000; stroke-width: 0.8"/>
      </g>
     </g>
     <g id="text_12">
      <!-- $\mathdefault{10^{4}}$ -->
      <g transform="translate(47.4 42.840033) scale(0.1 -0.1)">
       <use xlink:href="#DejaVuSans-31" transform="translate(0 0.684375)"/>
       <use xlink:href="#DejaVuSans-30" transform="translate(63.623047 0.684375)"/>
       <use xlink:href="#DejaVuSans-34" transform="translate(128.203125 38.965625) scale(0.7)"/>
      </g>
     </g>
    </g>
    <g id="ytick_6">
     <g id="line2d_34">
      <defs>
       <path id="md1932e4ace" d="M 0 0 
L -2 0 
" style="stroke: #000000; stroke-width: 0.6"/>
      </defs>
      <g>
       <use xlink:href="#md1932e4ace" x="72" y="250.537201" style="stroke: #000000; stroke-width: 0.6"/>
      </g>
     </g>
    </g>
    <g id="ytick_7">
     <g id="line2d_35">
      <g>
       <use xlink:href="#md1932e4ace" x="72" y="245.87681" style="stroke: #000000; stroke-width: 0.6"/>
      </g>
     </g>
    </g>
    <g id="ytick_8">
     <g id="line2d_36">
      <g>
       <use xlink:href="#md1932e4ace" x="72" y="242.068994" style="stroke: #000000; stroke-width: 0.6"/>
      </g>
     </g>
    </g>
    <g id="ytick_9">
     <g id="line2d_37">
      <g>
       <use xlink:href="#md1932e4ace" x="72" y="238.849531" style="stroke: #000000; stroke-width: 0.6"/>
      </g>
     </g>
    </g>
    <g id="ytick_10">
     <g id="line2d_38">
      <g>
       <use xlink:href="#md1932e4ace" x="72" y="236.060706" style="stroke: #000000; stroke-width: 0.6"/>
      </g>
     </g>
    </g>
    <g id="ytick_11">
     <g id="line2d_39">
      <g>
       <use xlink:href="#md1932e4ace" x="72" y="233.600787" style="stroke: #000000; stroke-width: 0.6"/>
      </g>
     </g>
    </g>
    <g id="ytick_12">
     <g id="line2d_40">
      <g>
       <use xlink:href="#md1932e4ace" x="72" y="216.92382" style="stroke: #000000; stroke-width: 0.6"/>
      </g>
     </g>
    </g>
    <g id="ytick_13">
     <g id="line2d_41">
      <g>
       <use xlink:href="#md1932e4ace" x="72" y="208.455614" style="stroke: #000000; stroke-width: 0.6"/>
      </g>
     </g>
    </g>
    <g id="ytick_14">
     <g id="line2d_42">
      <g>
       <use xlink:href="#md1932e4ace" x="72" y="202.447326" style="stroke: #000000; stroke-width: 0.6"/>
      </g>
     </g>
    </g>
    <g id="ytick_15">
     <g id="line2d_43">
      <g>
       <use xlink:href="#md1932e4ace" x="72" y="197.786935" style="stroke: #000000; stroke-width: 0.6"/>
      </g>
     </g>
    </g>
    <g id="ytick_16">
     <g id="line2d_44">
      <g>
       <use xlink:href="#md1932e4ace" x="72" y="193.979119" style="stroke: #000000; stroke-width: 0.6"/>
      </g>
     </g>
    </g>
    <g id="ytick_17">
     <g id="line2d_45">
      <g>
       <use xlink:href="#md1932e4ace" x="72" y="190.759656" style="stroke: #000000; stroke-width: 0.6"/>
      </g>
     </g>
    </g>
    <g id="ytick_18">
     <g id="line2d_46">
      <g>
       <use xlink:href="#md1932e4ace" x="72" y="187.970831" style="stroke: #000000; stroke-width: 0.6"/>
      </g>
     </g>
    </g>
    <g id="ytick_19">
     <g id="line2d_47">
      <g>
       <use xlink:href="#md1932e4ace" x="72" y="185.510912" style="stroke: #000000; stroke-width: 0.6"/>
      </g>
     </g>
    </g>
    <g id="ytick_20">
     <g id="line2d_48">
      <g>
       <use xlink:href="#md1932e4ace" x="72" y="168.833945" style="stroke: #000000; stroke-width: 0.6"/>
      </g>
     </g>
    </g>
    <g id="ytick_21">
     <g id="line2d_49">
      <g>
       <use xlink:href="#md1932e4ace" x="72" y="160.365739" style="stroke: #000000; stroke-width: 0.6"/>
      </g>
     </g>
    </g>
    <g id="ytick_22">
     <g id="line2d_50">
      <g>
       <use xlink:href="#md1932e4ace" x="72" y="154.35745" style="stroke: #000000; stroke-width: 0.6"/>
      </g>
     </g>
    </g>
    <g id="ytick_23">
     <g id="line2d_51">
      <g>
       <use xlink:href="#md1932e4ace" x="72" y="149.69706" style="stroke: #000000; stroke-width: 0.6"/>
      </g>
     </g>
    </g>
    <g id="ytick_24">
     <g id="line2d_52">
      <g>
       <use xlink:href="#md1932e4ace" x="72" y="145.889244" style="stroke: #000000; stroke-width: 0.6"/>
      </g>
     </g>
    </g>
    <g id="ytick_25">
     <g id="line2d_53">
      <g>
       <use xlink:href="#md1932e4ace" x="72" y="142.669781" style="stroke: #000000; stroke-width: 0.6"/>
      </g>
     </g>
    </g>
    <g id="ytick_26">
     <g id="line2d_54">
      <g>
       <use xlink:href="#md1932e4ace" x="72" y="139.880955" style="stroke: #000000; stroke-width: 0.6"/>
      </g>
     </g>
    </g>
    <g id="ytick_27">
     <g id="line2d_55">
      <g>
       <use xlink:href="#md1932e4ace" x="72" y="137.421037" style="stroke: #000000; stroke-width: 0.6"/>
      </g>
     </g>
    </g>
    <g id="ytick_28">
     <g id="line2d_56">
      <g>
       <use xlink:href="#md1932e4ace" x="72" y="120.74407" style="stroke: #000000; stroke-width: 0.6"/>
      </g>
     </g>
    </g>
    <g id="ytick_29">
     <g id="line2d_57">
      <g>
       <use xlink:href="#md1932e4ace" x="72" y="112.275863" style="stroke: #000000; stroke-width: 0.6"/>
      </g>
     </g>
    </g>
    <g id="ytick_30">
     <g id="line2d_58">
      <g>
       <use xlink:href="#md1932e4ace" x="72" y="106.267575" style="stroke: #000000; stroke-width: 0.6"/>
      </g>
     </g>
    </g>
    <g id="ytick_31">
     <g id="line2d_59">
      <g>
       <use xlink:href="#md1932e4ace" x="72" y="101.607185" style="stroke: #000000; stroke-width: 0.6"/>
      </g>
     </g>
    </g>
    <g id="ytick_32">
     <g id="line2d_60">
      <g>
       <use xlink:href="#md1932e4ace" x="72" y="97.799368" style="stroke: #000000; stroke-width: 0.6"/>
      </g>
     </g>
    </g>
    <g id="ytick_33">
     <g id="line2d_61">
      <g>
       <use xlink:href="#md1932e4ace" x="72" y="94.579906" style="stroke: #000000; stroke-width: 0.6"/>
      </g>
     </g>
    </g>
    <g id="ytick_34">
     <g id="line2d_62">
      <g>
       <use xlink:href="#md1932e4ace" x="72" y="91.79108" style="stroke: #000000; stroke-width: 0.6"/>
      </g>
     </g>
    </g>
    <g id="ytick_35">
     <g id="line2d_63">
      <g>
       <use xlink:href="#md1932e4ace" x="72" y="89.331162" style="stroke: #000000; stroke-width: 0.6"/>
      </g>
     </g>
    </g>
    <g id="ytick_36">
     <g id="line2d_64">
      <g>
       <use xlink:href="#md1932e4ace" x="72" y="72.654195" style="stroke: #000000; stroke-width: 0.6"/>
      </g>
     </g>
    </g>
    <g id="ytick_37">
     <g id="line2d_65">
      <g>
       <use xlink:href="#md1932e4ace" x="72" y="64.185988" style="stroke: #000000; stroke-width: 0.6"/>
      </g>
     </g>
    </g>
    <g id="ytick_38">
     <g id="line2d_66">
      <g>
       <use xlink:href="#md1932e4ace" x="72" y="58.1777" style="stroke: #000000; stroke-width: 0.6"/>
      </g>
     </g>
    </g>
    <g id="ytick_39">
     <g id="line2d_67">
      <g>
       <use xlink:href="#md1932e4ace" x="72" y="53.517309" style="stroke: #000000; stroke-width: 0.6"/>
      </g>
     </g>
    </g>
    <g id="ytick_40">
     <g id="line2d_68">
      <g>
       <use xlink:href="#md1932e4ace" x="72" y="49.709493" style="stroke: #000000; stroke-width: 0.6"/>
      </g>
     </g>
    </g>
    <g id="ytick_41">
     <g id="line2d_69">
      <g>
       <use xlink:href="#md1932e4ace" x="72" y="46.49003" style="stroke: #000000; stroke-width: 0.6"/>
      </g>
     </g>
    </g>
    <g id="ytick_42">
     <g id="line2d_70">
      <g>
       <use xlink:href="#md1932e4ace" x="72" y="43.701205" style="stroke: #000000; stroke-width: 0.6"/>
      </g>
     </g>
    </g>
    <g id="ytick_43">
     <g id="line2d_71">
      <g>
       <use xlink:href="#md1932e4ace" x="72" y="41.241286" style="stroke: #000000; stroke-width: 0.6"/>
      </g>
     </g>
    </g>
    <g id="text_13">
     <!-- generation time per maze (ms) -->
     <g transform="translate(41.320312 223.603281) rotate(-90) scale(0.1 -0.1)">
      <defs>
       <path id="DejaVuSans-74" d="M 1172 4494 
L 1172 3500 
L 2356 3500 
L 2356 3053 
L 1172 3053 
L 1172 1153 
Q 1172 725 1289 603 
Q 1406 481 1766 481 
L 2356 481 
L 2356 0 
L 1766 0 
Q 1100 0 847 248 
Q 594 497 594 1153 
L 594 3053 
L 172 3053 
L 172 3500 
L 594 3500 
L 594 4494 
L 1172 4494 
z
" transform="scale(0.015625)"/>
       <path id="DejaVuSans-6f" d="M 1959 3097 
Q 1497 3097 1228 2736 
Q 959 2375 959 1747 
Q 959 1119 1226 758 
Q 1494 397 1959 397 
Q 2419 397 2687 759 
Q 2956 1122 2956 1747 
Q 2956 2369 2687 2733 
Q 2419 3097 1959 3097 
z
M 1959 3584 
Q 2709 3584 3137 3096 
Q 3566 2609 3566 1747 
Q 3566 888 3137 398 
Q 2709 -91 1959 -91 
Q 1206 -91 779 398 
Q 353 888 353 1747 
Q 353 2609 779 3096 
Q 1206 3584 1959 3584 
z
" transform="scale(0.015625)"/>
       <path id="DejaVuSans-6d" d="M 3328 2828 
Q 3544 3216 3844 3400 
Q 4144 3584 4550 3584 
Q 5097 3584 5394 3201 
Q 5691 2819 5691 2113 
L 5691 0 
L 5113 0 
L 5113 2094 
Q 5113 2597 4934 2840 
Q 4756 3084 4391 3084 
Q 3944 3084 3684 2787 
Q 3425 2491 3425 1978 
L 3425 0 
L 2847 0 
L 2847 2094 
Q 2847 2600 2669 2842 
Q 2491 3084 2119 3084 
Q 1678 3084 1418 2786 
Q 1159 2488 1159 1978 
L 1159 0 
L 581 0 
L 581 3500 
L 1159 3500 
L 1159 2956 
Q 1356 3278 1631 3431 
Q 1906 3584 2284 3584 
Q 2666 3584 2933 3390 
Q 3200 3197 3328 2828 
z
" transform="scale(0.015625)"/>
       <path id="DejaVuSans-70" d="M 1159 525 
L 1159 -1331 
L 581 -1331 
L 581 3500 
L 1159 3500 
L 1159 2969 
Q 1341 3281 1617 3432 
Q 1894 3584 2278 3584 
Q 2916 3584 3314 3078 
Q 3713 2572 3713 1747 
Q 3713 922 3314 415 
Q 2916 -91 2278 -91 
Q 1894 -91 1617 61 
Q 1341 213 1159 525 
z
M 3116 1747 
Q 3116 2381 2855 2742 
Q 2594 3103 2138 3103 
Q 1681 3103 1420 2742 
Q 1159 2381 1159 1747 
Q 1159 1113 1420 752 
Q 1681 391 2138 391 
Q 2594 391 2855 752 
Q 3116 1113 3116 1747 
z
" transform="scale(0.015625)"/>
       <path id="DejaVuSans-73" d="M 2834 3397 
L 2834 2853 
Q 2591 2978 2328 3040 
Q 2066 3103 1784 3103 
Q 1356 3103 1142 2972 
Q 928 2841 928 2578 
Q 928 2378 1081 2264 
Q 1234 2150 1697 2047 
L 1894 2003 
Q 2506 1872 2764 1633 
Q 3022 1394 3022 966 
Q 3022 478 2636 193 
Q 2250 -91 1575 -91 
Q 1294 -91 989 -36 
Q 684 19 347 128 
L 347 722 
Q 666 556 975 473 
Q 1284 391 1588 391 
Q 1994 391 2212 530 
Q 2431 669 2431 922 
Q 2431 1156 2273 1281 
Q 2116 1406 1581 1522 
L 1381 1569 
Q 847 1681 609 1914 
Q 372 2147 372 2553 
Q 372 3047 722 3315 
Q 1072 3584 1716 3584 
Q 2034 3584 2315 3537 
Q 2597 3491 2834 3397 
z
" transform="scale(0.015625)"/>
      </defs>
      <use xlink:href="#DejaVuSans-67"/>
      <use xlink:href="#DejaVuSans-65" transform="translate(63.476562 0)"/>
      <use xlink:href="#DejaVuSans-6e" transform="translate(125 0)"/>
      <use xlink:href="#DejaVuSans-65" transform="translate(188.378906 0)"/>
      <use xlink:href="#DejaVuSans-72" transform="translate(249.902344 0)"/>
      <use xlink:href="#DejaVuSans-61" transform="translate(291.015625 0)"/>
      <use xlink:href="#DejaVuSans-74" transform="translate(352.294922 0)"/>
      <use xlink:href="#DejaVuSans-69" transform="translate(391.503906 0)"/>
      <use xlink:href="#DejaVuSans-6f" transform="translate(419.287109 0)"/>
      <use xlink:href="#DejaVuSans-6e" transform="translate(480.46875 0)"/>
      <use xlink:href="#DejaVuSans-20" transform="translate(543.847656 0)"/>
      <use xlink:href="#DejaVuSans-74" transform="translate(575.634766 0)"/>
      <use xlink:href="#DejaVuSans-69" transform="translate(614.84375 0)"/>
      <use xlink:href="#DejaVuSans-6d" transform="translate(642.626953 0)"/>
      <use xlink:href="#DejaVuSans-65" transform="translate(740.039062 0)"/>
      <use xlink:href="#DejaVuSans-20" transform="translate(801.5625 0)"/>
      <use xlink:href="#DejaVuSans-70" transform="translate(833.349609 0)"/>
      <use xlink:href="#DejaVuSans-65" transform="translate(896.826172 0)"/>
      <use xlink:href="#DejaVuSans-72" transform="translate(958.349609 0)"/>
      <use xlink:href="#DejaVuSans-20" transform="translate(999.462891 0)"/>
      <use xlink:href="#DejaVuSans-6d" transform="translate(1031.25 0)"/>
      <use xlink:href="#DejaVuSans-61" transform="translate(1128.662109 0)"/>
      <use xlink:href="#DejaVuSans-7a" transform="translate(1189.941406 0)"/>
      <use xlink:href="#DejaVuSans-65" transform="translate(1242.431641 0)"/>
      <use xlink:href="#DejaVuSans-20" transform="translate(1303.955078 0)"/>
      <use xlink:href="#DejaVuSans-28" transform="translate(1335.742188 0)"/>
      <use xlink:href="#DejaVuSans-6d" transform="translate(1374.755859 0)"/>
      <use xlink:href="#DejaVuSans-73" transform="translate(1472.167969 0)"/>
      <use xlink:href="#DejaVuSans-29" transform="translate(1524.267578 0)"/>
     </g>
    </g>
   </g>
   <g id="line2d_72">
    <path d="M 92.290909 218.676784 
L 139.768593 216.726278 
L 173.454545 216.329179 
L 199.5834 214.499878 
L 220.932229 212.815338 
L 238.982407 211.3983 
L 254.618182 209.768557 
L 291.907323 204.830734 
L 335.781818 197.167577 
L 373.070959 190.020732 
L 416.945455 178.679543 
L 456.86604 165.948296 
L 498.109091 150.629903 
" clip-path="url(#pdba6f76814)" style="fill: none; stroke: #1f77b4; stroke-width: 1.5; stroke-linecap: square"/>
    <defs>
     <path id="m5d080b6224" d="M 0 3 
C 0.795609 3 1.55874 2.683901 2.12132 2.12132 
C 2.683901 1.55874 3 0.795609 3 0 
C 3 -0.795609 2.683901 -1.55874 2.12132 -2.12132 
C 1.55874 -2.683901 0.795609 -3 0 -3 
C -0.795609 -3 -1.55874 -2.683901 -2.12132 -2.12132 
C -2.683901 -1.55874 -3 -0.795609 -3 0 
C -3 0.795609 -2.683901 1.55874 -2.12132 2.12132 
C -1.55874 2.683901 -0.795609 3 0 3 
z
" style="stroke: #ffffff; stroke-width: 0.75"/>
    </defs>
    <g clip-path="url(#pdba6f76814)">
     <use xlink:href="#m5d080b6224" x="92.290909" y="218.676784" style="fill: #1f77b4; stroke: #ffffff; stroke-width: 0.75"/>
     <use xlink:href="#m5d080b6224" x="139.768593" y="216.726278" style="fill: #1f77b4; stroke: #ffffff; stroke-width: 0.75"/>
     <use xlink:href="#m5d080b6224" x="173.454545" y="216.329179" style="fill: #1f77b4; stroke: #ffffff; stroke-width: 0.75"/>
     <use xlink:href="#m5d080b6224" x="199.5834" y="214.499878" style="fill: #1f77b4; stroke: #ffffff; stroke-width: 0.75"/>
     <use xlink:href="#m5d080b6224" x="220.932229" y="212.815338" style="fill: #1f77b4; stroke: #ffffff; stroke-width: 0.75"/>
     <use xlink:href="#m5d080b6224" x="238.982407" y="211.3983" style="fill: #1f77b4; stroke: #ffffff; stroke-width: 0.75"/>
     <use xlink:href="#m5d080b6224" x="254.618182" y="209.768557" style="fill: #1f77b4; stroke: #ffffff; stroke-width: 0.75"/>
     <use xlink:href="#m5d080b6224" x="291.907323" y="204.830734" style="fill: #1f77b4; stroke: #ffffff; stroke-width: 0.75"/>
     <use xlink:href="#m5d080b6224" x="335.781818" y="197.167577" style="fill: #1f77b4; stroke: #ffffff; stroke-width: 0.75"/>
     <use xlink:href="#m5d080b6224" x="373.070959" y="190.020732" style="fill: #1f77b4; stroke: #ffffff; stroke-width: 0.75"/>
     <use xlink:href="#m5d080b6224" x="416.945455" y="178.679543" style="fill: #1f77b4; stroke: #ffffff; stroke-width: 0.75"/>
     <use xlink:href="#m5d080b6224" x="456.86604" y="165.948296" style="fill: #1f77b4; stroke: #ffffff; stroke-width: 0.75"/>
     <use xlink:href="#m5d080b6224" x="498.109091" y="150.629903" style="fill: #1f77b4; stroke: #ffffff; stroke-width: 0.75"/>
    </g>
   </g>
   <g id="line2d_73">
    <path d="M 92.290909 230.469044 
L 139.768593 224.772791 
L 173.454545 218.708995 
L 199.5834 212.338302 
L 220.932229 205.658092 
L 238.982407 199.892626 
L 254.618182 196.246097 
L 291.907323 182.727489 
L 335.781818 168.807524 
L 373.070959 156.885021 
L 416.945455 141.21952 
L 456.86604 126.315921 
L 498.109091 113.106631 
" clip-path="url(#pdba6f76814)" style="fill: none; stroke: #ff7f0e; stroke-width: 1.5; stroke-linecap: square"/>
    <defs>
     <path id="mee0851c19b" d="M 0 3 
C 0.795609 3 1.55874 2.683901 2.12132 2.12132 
C 2.683901 1.55874 3 0.795609 3 0 
C 3 -0.795609 2.683901 -1.55874 2.12132 -2.12132 
C 1.55874 -2.683901 0.795609 -3 0 -3 
C -0.795609 -3 -1.55874 -2.683901 -2.12132 -2.12132 
C -2.683901 -1.55874 -3 -0.795609 -3 0 
C -3 0.795609 -2.683901 1.55874 -2.12132 2.12132 
C -1.55874 2.683901 -0.795609 3 0 3 
z
" style="stroke: #ffffff; stroke-width: 0.75"/>
    </defs>
    <g clip-path="url(#pdba6f76814)">
     <use xlink:href="#mee0851c19b" x="92.290909" y="230.469044" style="fill: #ff7f0e; stroke: #ffffff; stroke-width: 0.75"/>
     <use xlink:href="#mee0851c19b" x="139.768593" y="224.772791" style="fill: #ff7f0e; stroke: #ffffff; stroke-width: 0.75"/>
     <use xlink:href="#mee0851c19b" x="173.454545" y="218.708995" style="fill: #ff7f0e; stroke: #ffffff; stroke-width: 0.75"/>
     <use xlink:href="#mee0851c19b" x="199.5834" y="212.338302" style="fill: #ff7f0e; stroke: #ffffff; stroke-width: 0.75"/>
     <use xlink:href="#mee0851c19b" x="220.932229" y="205.658092" style="fill: #ff7f0e; stroke: #ffffff; stroke-width: 0.75"/>
     <use xlink:href="#mee0851c19b" x="238.982407" y="199.892626" style="fill: #ff7f0e; stroke: #ffffff; stroke-width: 0.75"/>
     <use xlink:href="#mee0851c19b" x="254.618182" y="196.246097" style="fill: #ff7f0e; stroke: #ffffff; stroke-width: 0.75"/>
     <use xlink:href="#mee0851c19b" x="291.907323" y="182.727489" style="fill: #ff7f0e; stroke: #ffffff; stroke-width: 0.75"/>
     <use xlink:href="#mee0851c19b" x="335.781818" y="168.807524" style="fill: #ff7f0e; stroke: #ffffff; stroke-width: 0.75"/>
     <use xlink:href="#mee0851c19b" x="373.070959" y="156.885021" style="fill: #ff7f0e; stroke: #ffffff; stroke-width: 0.75"/>
     <use xlink:href="#mee0851c19b" x="416.945455" y="141.21952" style="fill: #ff7f0e; stroke: #ffffff; stroke-width: 0.75"/>
     <use xlink:href="#mee0851c19b" x="456.86604" y="126.315921" style="fill: #ff7f0e; stroke: #ffffff; stroke-width: 0.75"/>
     <use xlink:href="#mee0851c19b" x="498.109091" y="113.106631" style="fill: #ff7f0e; stroke: #ffffff; stroke-width: 0.75"/>
    </g>
   </g>
   <g id="line2d_74">
    <path d="M 92.290909 223.209589 
L 139.768593 221.381066 
L 173.454545 221.219388 
L 199.5834 219.768893 
L 220.932229 214.607552 
L 238.982407 211.879407 
L 254.618182 213.810361 
L 291.907323 207.964279 
L 335.781818 188.803978 
L 373.070959 182.630862 
L 416.945455 168.577762 
L 456.86604 156.805699 
L 498.109091 140.921849 
" clip-path="url(#pdba6f76814)" style="fill: none; stroke: #2ca02c; stroke-width: 1.5; stroke-linecap: square"/>
    <defs>
     <path id="md560dc3240" d="M 0 3 
C 0.795609 3 1.55874 2.683901 2.12132 2.12132 
C 2.683901 1.55874 3 0.795609 3 0 
C 3 -0.795609 2.683901 -1.55874 2.12132 -2.12132 
C 1.55874 -2.683901 0.795609 -3 0 -3 
C -0.795609 -3 -1.55874 -2.683901 -2.12132 -2.12132 
C -2.683901 -1.55874 -3 -0.795609 -3 0 
C -3 0.795609 -2.683901 1.55874 -2.12132 2.12132 
C -1.55874 2.683901 -0.795609 3 0 3 
z
" style="stroke: #ffffff; stroke-width: 0.75"/>
    </defs>
    <g clip-path="url(#pdba6f76814)">
     <use xlink:href="#md560dc3240" x="92.290909" y="223.209589" style="fill: #2ca02c; stroke: #ffffff; stroke-width: 0.75"/>
     <use xlink:href="#md560dc3240" x="139.768593" y="221.381066" style="fill: #2ca02c; stroke: #ffffff; stroke-width: 0.75"/>
     <use xlink:href="#md560dc3240" x="173.454545" y="221.219388" style="fill: #2ca02c; stroke: #ffffff; stroke-width: 0.75"/>
     <use xlink:href="#md560dc3240" x="199.5834" y="219.768893" style="fill: #2ca02c; stroke: #ffffff; stroke-width: 0.75"/>
     <use xlink:href="#md560dc3240" x="220.932229" y="214.607552" style="fill: #2ca02c; stroke: #ffffff; stroke-width: 0.75"/>
     <use xlink:href="#md560dc3240" x="238.982407" y="211.879407" style="fill: #2ca02c; stroke: #ffffff; stroke-width: 0.75"/>
     <use xlink:href="#md560dc3240" x="254.618182" y="213.810361" style="fill: #2ca02c; stroke: #ffffff; stroke-width: 0.75"/>
     <use xlink:href="#md560dc3240" x="291.907323" y="207.964279" style="fill: #2ca02c; stroke: #ffffff; stroke-width: 0.75"/>
     <use xlink:href="#md560dc3240" x="335.781818" y="188.803978" style="fill: #2ca02c; stroke: #ffffff; stroke-width: 0.75"/>
     <use xlink:href="#md560dc3240" x="373.070959" y="182.630862" style="fill: #2ca02c; stroke: #ffffff; stroke-width: 0.75"/>
     <use xlink:href="#md560dc3240" x="416.945455" y="168.577762" style="fill: #2ca02c; stroke: #ffffff; stroke-width: 0.75"/>
     <use xlink:href="#md560dc3240" x="456.86604" y="156.805699" style="fill: #2ca02c; stroke: #ffffff; stroke-width: 0.75"/>
     <use xlink:href="#md560dc3240" x="498.109091" y="140.921849" style="fill: #2ca02c; stroke: #ffffff; stroke-width: 0.75"/>
    </g>
   </g>
   <g id="line2d_75">
    <path d="M 92.290909 222.311237 
L 139.768593 215.860305 
L 173.454545 208.961997 
L 199.5834 202.094501 
L 220.932229 192.397384 
L 238.982407 182.288993 
L 254.618182 162.594645 
L 291.907323 150.379949 
L 335.781818 129.622932 
L 373.070959 126.657973 
L 416.945455 105.020221 
L 456.86604 71.402345 
L 498.109091 50.196844 
" clip-path="url(#pdba6f76814)" style="fill: none; stroke: #d62728; stroke-width: 1.5; stroke-linecap: square"/>
    <defs>
     <path id="mf3185e20d1" d="M 0 3 
C 0.795609 3 1.55874 2.683901 2.12132 2.12132 
C 2.683901 1.55874 3 0.795609 3 0 
C 3 -0.795609 2.683901 -1.55874 2.12132 -2.12132 
C 1.55874 -2.683901 0.795609 -3 0 -3 
C -0.795609 -3 -1.55874 -2.683901 -2.12132 -2.12132 
C -2.683901 -1.55874 -3 -0.795609 -3 0 
C -3 0.795609 -2.683901 1.55874 -2.12132 2.12132 
C -1.55874 2.683901 -0.795609 3 0 3 
z
" style="stroke: #ffffff; stroke-width: 0.75"/>
    </defs>
    <g clip-path="url(#pdba6f76814)">
     <use xlink:href="#mf3185e20d1" x="92.290909" y="222.311237" style="fill: #d62728; stroke: #ffffff; stroke-width: 0.75"/>
     <use xlink:href="#mf3185e20d1" x="139.768593" y="215.860305" style="fill: #d62728; stroke: #ffffff; stroke-width: 0.75"/>
     <use xlink:href="#mf3185e20d1" x="173.454545" y="208.961997" style="fill: #d62728; stroke: #ffffff; stroke-width: 0.75"/>
     <use xlink:href="#mf3185e20d1" x="199.5834" y="202.094501" style="fill: #d62728; stroke: #ffffff; stroke-width: 0.75"/>
     <use xlink:href="#mf3185e20d1" x="220.932229" y="192.397384" style="fill: #d62728; stroke: #ffffff; stroke-width: 0.75"/>
     <use xlink:href="#mf3185e20d1" x="238.982407" y="182.288993" style="fill: #d62728; stroke: #ffffff; stroke-width: 0.75"/>
     <use xlink:href="#mf3185e20d1" x="254.618182" y="162.594645" style="fill: #d62728; stroke: #ffffff; stroke-width: 0.75"/>
     <use xlink:href="#mf3185e20d1" x="291.907323" y="150.379949" style="fill: #d62728; stroke: #ffffff; stroke-width: 0.75"/>
     <use xlink:href="#mf3185e20d1" x="335.781818" y="129.622932" style="fill: #d62728; stroke: #ffffff; stroke-width: 0.75"/>
     <use xlink:href="#mf3185e20d1" x="373.070959" y="126.657973" style="fill: #d62728; stroke: #ffffff; stroke-width: 0.75"/>
     <use xlink:href="#mf3185e20d1" x="416.945455" y="105.020221" style="fill: #d62728; stroke: #ffffff; stroke-width: 0.75"/>
     <use xlink:href="#mf3185e20d1" x="456.86604" y="71.402345" style="fill: #d62728; stroke: #ffffff; stroke-width: 0.75"/>
     <use xlink:href="#mf3185e20d1" x="498.109091" y="50.196844" style="fill: #d62728; stroke: #ffffff; stroke-width: 0.75"/>
    </g>
   </g>
   <g id="line2d_76">
    <path d="M 92.290909 224.121881 
L 139.768593 223.266289 
L 173.454545 222.325193 
L 199.5834 222.512077 
L 220.932229 218.7937 
L 238.982407 214.413999 
L 254.618182 217.369205 
L 291.907323 210.355163 
L 335.781818 200.045911 
L 373.070959 188.210597 
L 416.945455 168.178374 
L 456.86604 163.743098 
L 498.109091 146.347275 
" clip-path="url(#pdba6f76814)" style="fill: none; stroke: #9467bd; stroke-width: 1.5; stroke-linecap: square"/>
    <defs>
     <path id="mc14be382f1" d="M 0 3 
C 0.795609 3 1.55874 2.683901 2.12132 2.12132 
C 2.683901 1.55874 3 0.795609 3 0 
C 3 -0.795609 2.683901 -1.55874 2.12132 -2.12132 
C 1.55874 -2.683901 0.795609 -3 0 -3 
C -0.795609 -3 -1.55874 -2.683901 -2.12132 -2.12132 
C -2.683901 -1.55874 -3 -0.795609 -3 0 
C -3 0.795609 -2.683901 1.55874 -2.12132 2.12132 
C -1.55874 2.683901 -0.795609 3 0 3 
z
" style="stroke: #ffffff; stroke-width: 0.75"/>
    </defs>
    <g clip-path="url(#pdba6f76814)">
     <use xlink:href="#mc14be382f1" x="92.290909" y="224.121881" style="fill: #9467bd; stroke: #ffffff; stroke-width: 0.75"/>
     <use xlink:href="#mc14be382f1" x="139.768593" y="223.266289" style="fill: #9467bd; stroke: #ffffff; stroke-width: 0.75"/>
     <use xlink:href="#mc14be382f1" x="173.454545" y="222.325193" style="fill: #9467bd; stroke: #ffffff; stroke-width: 0.75"/>
     <use xlink:href="#mc14be382f1" x="199.5834" y="222.512077" style="fill: #9467bd; stroke: #ffffff; stroke-width: 0.75"/>
     <use xlink:href="#mc14be382f1" x="220.932229" y="218.7937" style="fill: #9467bd; stroke: #ffffff; stroke-width: 0.75"/>
     <use xlink:href="#mc14be382f1" x="238.982407" y="214.413999" style="fill: #9467bd; stroke: #ffffff; stroke-width: 0.75"/>
     <use xlink:href="#mc14be382f1" x="254.618182" y="217.369205" style="fill: #9467bd; stroke: #ffffff; stroke-width: 0.75"/>
     <use xlink:href="#mc14be382f1" x="291.907323" y="210.355163" style="fill: #9467bd; stroke: #ffffff; stroke-width: 0.75"/>
     <use xlink:href="#mc14be382f1" x="335.781818" y="200.045911" style="fill: #9467bd; stroke: #ffffff; stroke-width: 0.75"/>
     <use xlink:href="#mc14be382f1" x="373.070959" y="188.210597" style="fill: #9467bd; stroke: #ffffff; stroke-width: 0.75"/>
     <use xlink:href="#mc14be382f1" x="416.945455" y="168.178374" style="fill: #9467bd; stroke: #ffffff; stroke-width: 0.75"/>
     <use xlink:href="#mc14be382f1" x="456.86604" y="163.743098" style="fill: #9467bd; stroke: #ffffff; stroke-width: 0.75"/>
     <use xlink:href="#mc14be382f1" x="498.109091" y="146.347275" style="fill: #9467bd; stroke: #ffffff; stroke-width: 0.75"/>
    </g>
   </g>
   <g id="line2d_77">
    <path d="M 92.290909 233.937553 
L 139.768593 228.04736 
L 173.454545 220.082294 
L 199.5834 214.555242 
L 220.932229 206.994497 
L 238.982407 202.505149 
L 254.618182 196.873229 
L 291.907323 184.245237 
L 335.781818 169.084005 
L 373.070959 155.91768 
L 416.945455 139.273894 
L 456.86604 125.664297 
L 498.109091 110.476772 
" clip-path="url(#pdba6f76814)" style="fill: none; stroke: #8c564b; stroke-width: 1.5; stroke-linecap: square"/>
    <defs>
     <path id="m0058e8c6aa" d="M 0 3 
C 0.795609 3 1.55874 2.683901 2.12132 2.12132 
C 2.683901 1.55874 3 0.795609 3 0 
C 3 -0.795609 2.683901 -1.55874 2.12132 -2.12132 
C 1.55874 -2.683901 0.795609 -3 0 -3 
C -0.795609 -3 -1.55874 -2.683901 -2.12132 -2.12132 
C -2.683901 -1.55874 -3 -0.795609 -3 0 
C -3 0.795609 -2.683901 1.55874 -2.12132 2.12132 
C -1.55874 2.683901 -0.795609 3 0 3 
z
" style="stroke: #ffffff; stroke-width: 0.75"/>
    </defs>
    <g clip-path="url(#pdba6f76814)">
     <use xlink:href="#m0058e8c6aa" x="92.290909" y="233.937553" style="fill: #8c564b; stroke: #ffffff; stroke-width: 0.75"/>
     <use xlink:href="#m0058e8c6aa" x="139.768593" y="228.04736" style="fill: #8c564b; stroke: #ffffff; stroke-width: 0.75"/>
     <use xlink:href="#m0058e8c6aa" x="173.454545" y="220.082294" style="fill: #8c564b; stroke: #ffffff; stroke-width: 0.75"/>
     <use xlink:href="#m0058e8c6aa" x="199.5834" y="214.555242" style="fill: #8c564b; stroke: #ffffff; stroke-width: 0.75"/>
     <use xlink:href="#m0058e8c6aa" x="220.932229" y="206.994497" style="fill: #8c564b; stroke: #ffffff; stroke-width: 0.75"/>
     <use xlink:href="#m0058e8c6aa" x="238.982407" y="202.505149" style="fill: #8c564b; stroke: #ffffff; stroke-width: 0.75"/>
     <use xlink:href="#m0058e8c6aa" x="254.618182" y="196.873229" style="fill: #8c564b; stroke: #ffffff; stroke-width: 0.75"/>
     <use xlink:href="#m0058e8c6aa" x="291.907323" y="184.245237" style="fill: #8c564b; stroke: #ffffff; stroke-width: 0.75"/>
     <use xlink:href="#m0058e8c6aa" x="335.781818" y="169.084005" style="fill: #8c564b; stroke: #ffffff; stroke-width: 0.75"/>
     <use xlink:href="#m0058e8c6aa" x="373.070959" y="155.91768" style="fill: #8c564b; stroke: #ffffff; stroke-width: 0.75"/>
     <use xlink:href="#m0058e8c6aa" x="416.945455" y="139.273894" style="fill: #8c564b; stroke: #ffffff; stroke-width: 0.75"/>
     <use xlink:href="#m0058e8c6aa" x="456.86604" y="125.664297" style="fill: #8c564b; stroke: #ffffff; stroke-width: 0.75"/>
     <use xlink:href="#m0058e8c6aa" x="498.109091" y="110.476772" style="fill: #8c564b; stroke: #ffffff; stroke-width: 0.75"/>
    </g>
   </g>
   <g id="line2d_78"/>
   <g id="line2d_79"/>
   <g id="line2d_80"/>
   <g id="line2d_81"/>
   <g id="line2d_82"/>
   <g id="line2d_83"/>
   <g id="patch_3">
    <path d="M 72 256.32 
L 72 34.56 
" style="fill: none; stroke: #000000; stroke-width: 0.8; stroke-linejoin: miter; stroke-linecap: square"/>
   </g>
   <g id="patch_4">
    <path d="M 518.4 256.32 
L 518.4 34.56 
" style="fill: none; stroke: #000000; stroke-width: 0.8; stroke-linejoin: miter; stroke-linecap: square"/>
   </g>
   <g id="patch_5">
    <path d="M 72 256.32 
L 518.4 256.32 
" style="fill: none; stroke: #000000; stroke-width: 0.8; stroke-linejoin: miter; stroke-linecap: square"/>
   </g>
   <g id="patch_6">
    <path d="M 72 34.56 
L 518.4 34.56 
" style="fill: none; stroke: #000000; stroke-width: 0.8; stroke-linejoin: miter; stroke-linecap: square"/>
   </g>
   <g id="text_14">
    <!-- Maze Size vs Generation Time -->
    <g transform="translate(204.732188 28.56) scale(0.12 -0.12)">
     <defs>
      <path id="DejaVuSans-76" d="M 191 3500 
L 800 3500 
L 1894 563 
L 2988 3500 
L 3597 3500 
L 2284 0 
L 1503 0 
L 191 3500 
z
" transform="scale(0.015625)"/>
      <path id="DejaVuSans-47" d="M 3809 666 
L 3809 1919 
L 2778 1919 
L 2778 2438 
L 4434 2438 
L 4434 434 
Q 4069 175 3628 42 
Q 3188 -91 2688 -91 
Q 1594 -91 976 548 
Q 359 1188 359 2328 
Q 359 3472 976 4111 
Q 1594 4750 2688 4750 
Q 3144 4750 3555 4637 
Q 3966 4525 4313 4306 
L 4313 3634 
Q 3963 3931 3569 4081 
Q 3175 4231 2741 4231 
Q 1884 4231 1454 3753 
Q 1025 3275 1025 2328 
Q 1025 1384 1454 906 
Q 1884 428 2741 428 
Q 3075 428 3337 486 
Q 3600 544 3809 666 
z
" transform="scale(0.015625)"/>
      <path id="DejaVuSans-54" d="M -19 4666 
L 3928 4666 
L 3928 4134 
L 2272 4134 
L 2272 0 
L 1638 0 
L 1638 4134 
L -19 4134 
L -19 4666 
z
" transform="scale(0.015625)"/>
     </defs>
     <use xlink:href="#DejaVuSans-4d"/>
     <use xlink:href="#DejaVuSans-61" transform="translate(86.279297 0)"/>
     <use xlink:href="#DejaVuSans-7a" transform="translate(147.558594 0)"/>
     <use xlink:href="#DejaVuSans-65" transform="translate(200.048828 0)"/>
     <use xlink:href="#DejaVuSans-20" transform="translate(261.572266 0)"/>
     <use xlink:href="#DejaVuSans-53" transform="translate(293.359375 0)"/>
     <use xlink:href="#DejaVuSans-69" transform="translate(356.835938 0)"/>
     <use xlink:href="#DejaVuSans-7a" transform="translate(384.619141 0)"/>
     <use xlink:href="#DejaVuSans-65" transform="translate(437.109375 0)"/>
     <use xlink:href="#DejaVuSans-20" transform="translate(498.632812 0)"/>
     <use xlink:href="#DejaVuSans-76" transform="translate(530.419922 0)"/>
     <use xlink:href="#DejaVuSans-73" transform="translate(589.599609 0)"/>
     <use xlink:href="#DejaVuSans-20" transform="translate(641.699219 0)"/>
     <use xlink:href="#DejaVuSans-47" transform="translate(673.486328 0)"/>
     <use xlink:href="#DejaVuSans-65" transform="translate(750.976562 0)"/>
     <use xlink:href="#DejaVuSans-6e" transform="translate(812.5 0)"/>
     <use xlink:href="#DejaVuSans-65" transform="translate(875.878906 0)"/>
     <use xlink:href="#DejaVuSans-72" transform="translate(937.402344 0)"/>
     <use xlink:href="#DejaVuSans-61" transform="translate(978.515625 0)"/>
     <use xlink:href="#DejaVuSans-74" transform="translate(1039.794922 0)"/>
     <use xlink:href="#DejaVuSans-69" transform="translate(1079.003906 0)"/>
     <use xlink:href="#DejaVuSans-6f" transform="translate(1106.787109 0)"/>
     <use xlink:href="#DejaVuSans-6e" transform="translate(1167.96875 0)"/>
     <use xlink:href="#DejaVuSans-20" transform="translate(1231.347656 0)"/>
     <use xlink:href="#DejaVuSans-54" transform="translate(1263.134766 0)"/>
     <use xlink:href="#DejaVuSans-69" transform="translate(1321.09375 0)"/>
     <use xlink:href="#DejaVuSans-6d" transform="translate(1348.876953 0)"/>
     <use xlink:href="#DejaVuSans-65" transform="translate(1446.289062 0)"/>
    </g>
   </g>
   <g id="legend_1">
    <g id="patch_7">
     <path d="M 79 146.975625 
L 224.151563 146.975625 
Q 226.151563 146.975625 226.151563 144.975625 
L 226.151563 41.56 
Q 226.151563 39.56 224.151563 39.56 
L 79 39.56 
Q 77 39.56 77 41.56 
L 77 144.975625 
Q 77 146.975625 79 146.975625 
z
" style="fill: #ffffff; opacity: 0.8; stroke: #cccccc; stroke-linejoin: miter"/>
    </g>
    <g id="text_15">
     <!-- Maze Generation Method -->
     <g transform="translate(88.672656 51.158438) scale(0.1 -0.1)">
      <defs>
       <path id="DejaVuSans-68" d="M 3513 2113 
L 3513 0 
L 2938 0 
L 2938 2094 
Q 2938 2591 2744 2837 
Q 2550 3084 2163 3084 
Q 1697 3084 1428 2787 
Q 1159 2491 1159 1978 
L 1159 0 
L 581 0 
L 581 4863 
L 1159 4863 
L 1159 2956 
Q 1366 3272 1645 3428 
Q 1925 3584 2291 3584 
Q 2894 3584 3203 3211 
Q 3513 2838 3513 2113 
z
" transform="scale(0.015625)"/>
      </defs>
      <use xlink:href="#DejaVuSans-4d"/>
      <use xlink:href="#DejaVuSans-61" transform="translate(86.279297 0)"/>
      <use xlink:href="#DejaVuSans-7a" transform="translate(147.558594 0)"/>
      <use xlink:href="#DejaVuSans-65" transform="translate(200.048828 0)"/>
      <use xlink:href="#DejaVuSans-20" transform="translate(261.572266 0)"/>
      <use xlink:href="#DejaVuSans-47" transform="translate(293.359375 0)"/>
      <use xlink:href="#DejaVuSans-65" transform="translate(370.849609 0)"/>
      <use xlink:href="#DejaVuSans-6e" transform="translate(432.373047 0)"/>
      <use xlink:href="#DejaVuSans-65" transform="translate(495.751953 0)"/>
      <use xlink:href="#DejaVuSans-72" transform="translate(557.275391 0)"/>
      <use xlink:href="#DejaVuSans-61" transform="translate(598.388672 0)"/>
      <use xlink:href="#DejaVuSans-74" transform="translate(659.667969 0)"/>
      <use xlink:href="#DejaVuSans-69" transform="translate(698.876953 0)"/>
      <use xlink:href="#DejaVuSans-6f" transform="translate(726.660156 0)"/>
      <use xlink:href="#DejaVuSans-6e" transform="translate(787.841797 0)"/>
      <use xlink:href="#DejaVuSans-20" transform="translate(851.220703 0)"/>
      <use xlink:href="#DejaVuSans-4d" transform="translate(883.007812 0)"/>
      <use xlink:href="#DejaVuSans-65" transform="translate(969.287109 0)"/>
      <use xlink:href="#DejaVuSans-74" transform="translate(1030.810547 0)"/>
      <use xlink:href="#DejaVuSans-68" transform="translate(1070.019531 0)"/>
      <use xlink:href="#DejaVuSans-6f" transform="translate(1133.398438 0)"/>
      <use xlink:href="#DejaVuSans-64" transform="translate(1194.580078 0)"/>
     </g>
    </g>
    <g id="line2d_84">
     <path d="M 81 62.336563 
L 91 62.336563 
L 101 62.336563 
" style="fill: none; stroke: #1f77b4; stroke-width: 1.5; stroke-linecap: square"/>
     <g>
      <use xlink:href="#m5d080b6224" x="91" y="62.336563" style="fill: #1f77b4; stroke: #ffffff; stroke-width: 0.75"/>
     </g>
    </g>
    <g id="text_16">
     <!-- gen_dfs -->
     <g transform="translate(109 65.836563) scale(0.1 -0.1)">
      <defs>
       <path id="DejaVuSans-66" d="M 2375 4863 
L 2375 4384 
L 1825 4384 
Q 1516 4384 1395 4259 
Q 1275 4134 1275 3809 
L 1275 3500 
L 2222 3500 
L 2222 3053 
L 1275 3053 
L 1275 0 
L 697 0 
L 697 3053 
L 147 3053 
L 147 3500 
L 697 3500 
L 697 3744 
Q 697 4328 969 4595 
Q 1241 4863 1831 4863 
L 2375 4863 
z
" transform="scale(0.015625)"/>
      </defs>
      <use xlink:href="#DejaVuSans-67"/>
      <use xlink:href="#DejaVuSans-65" transform="translate(63.476562 0)"/>
      <use xlink:href="#DejaVuSans-6e" transform="translate(125 0)"/>
      <use xlink:href="#DejaVuSans-5f" transform="translate(188.378906 0)"/>
      <use xlink:href="#DejaVuSans-64" transform="translate(238.378906 0)"/>
      <use xlink:href="#DejaVuSans-66" transform="translate(301.855469 0)"/>
      <use xlink:href="#DejaVuSans-73" transform="translate(337.060547 0)"/>
     </g>
    </g>
    <g id="line2d_85">
     <path d="M 81 77.292813 
L 91 77.292813 
L 101 77.292813 
" style="fill: none; stroke: #ff7f0e; stroke-width: 1.5; stroke-linecap: square"/>
     <g>
      <use xlink:href="#mee0851c19b" x="91" y="77.292813" style="fill: #ff7f0e; stroke: #ffffff; stroke-width: 0.75"/>
     </g>
    </g>
    <g id="text_17">
     <!-- gen_dfs_percolation -->
     <g transform="translate(109 80.792813) scale(0.1 -0.1)">
      <defs>
       <path id="DejaVuSans-63" d="M 3122 3366 
L 3122 2828 
Q 2878 2963 2633 3030 
Q 2388 3097 2138 3097 
Q 1578 3097 1268 2742 
Q 959 2388 959 1747 
Q 959 1106 1268 751 
Q 1578 397 2138 397 
Q 2388 397 2633 464 
Q 2878 531 3122 666 
L 3122 134 
Q 2881 22 2623 -34 
Q 2366 -91 2075 -91 
Q 1284 -91 818 406 
Q 353 903 353 1747 
Q 353 2603 823 3093 
Q 1294 3584 2113 3584 
Q 2378 3584 2631 3529 
Q 2884 3475 3122 3366 
z
" transform="scale(0.015625)"/>
       <path id="DejaVuSans-6c" d="M 603 4863 
L 1178 4863 
L 1178 0 
L 603 0 
L 603 4863 
z
" transform="scale(0.015625)"/>
      </defs>
      <use xlink:href="#DejaVuSans-67"/>
      <use xlink:href="#DejaVuSans-65" transform="translate(63.476562 0)"/>
      <use xlink:href="#DejaVuSans-6e" transform="translate(125 0)"/>
      <use xlink:href="#DejaVuSans-5f" transform="translate(188.378906 0)"/>
      <use xlink:href="#DejaVuSans-64" transform="translate(238.378906 0)"/>
      <use xlink:href="#DejaVuSans-66" transform="translate(301.855469 0)"/>
      <use xlink:href="#DejaVuSans-73" transform="translate(337.060547 0)"/>
      <use xlink:href="#DejaVuSans-5f" transform="translate(389.160156 0)"/>
      <use xlink:href="#DejaVuSans-70" transform="translate(439.160156 0)"/>
      <use xlink:href="#DejaVuSans-65" transform="translate(502.636719 0)"/>
      <use xlink:href="#DejaVuSans-72" transform="translate(564.160156 0)"/>
      <use xlink:href="#DejaVuSans-63" transform="translate(603.023438 0)"/>
      <use xlink:href="#DejaVuSans-6f" transform="translate(658.003906 0)"/>
      <use xlink:href="#DejaVuSans-6c" transform="translate(719.185547 0)"/>
      <use xlink:href="#DejaVuSans-61" transform="translate(746.96875 0)"/>
      <use xlink:href="#DejaVuSans-74" transform="translate(808.248047 0)"/>
      <use xlink:href="#DejaVuSans-69" transform="translate(847.457031 0)"/>
      <use xlink:href="#DejaVuSans-6f" transform="translate(875.240234 0)"/>
      <use xlink:href="#DejaVuSans-6e" transform="translate(936.421875 0)"/>
     </g>
    </g>
    <g id="line2d_86">
     <path d="M 81 92.249063 
L 91 92.249063 
L 101 92.249063 
" style="fill: none; stroke: #2ca02c; stroke-width: 1.5; stroke-linecap: square"/>
     <g>
      <use xlink:href="#md560dc3240" x="91" y="92.249063" style="fill: #2ca02c; stroke: #ffffff; stroke-width: 0.75"/>
     </g>
    </g>
    <g id="text_18">
     <!-- gen_kruskal -->
     <g transform="translate(109 95.749063) scale(0.1 -0.1)">
      <defs>
       <path id="DejaVuSans-6b" d="M 581 4863 
L 1159 4863 
L 1159 1991 
L 2875 3500 
L 3609 3500 
L 1753 1863 
L 3688 0 
L 2938 0 
L 1159 1709 
L 1159 0 
L 581 0 
L 581 4863 
z
" transform="scale(0.015625)"/>
       <path id="DejaVuSans-75" d="M 544 1381 
L 544 3500 
L 1119 3500 
L 1119 1403 
Q 1119 906 1312 657 
Q 1506 409 1894 409 
Q 2359 409 2629 706 
Q 2900 1003 2900 1516 
L 2900 3500 
L 3475 3500 
L 3475 0 
L 2900 0 
L 2900 538 
Q 2691 219 2414 64 
Q 2138 -91 1772 -91 
Q 1169 -91 856 284 
Q 544 659 544 1381 
z
M 1991 3584 
L 1991 3584 
z
" transform="scale(0.015625)"/>
      </defs>
      <use xlink:href="#DejaVuSans-67"/>
      <use xlink:href="#DejaVuSans-65" transform="translate(63.476562 0)"/>
      <use xlink:href="#DejaVuSans-6e" transform="translate(125 0)"/>
      <use xlink:href="#DejaVuSans-5f" transform="translate(188.378906 0)"/>
      <use xlink:href="#DejaVuSans-6b" transform="translate(238.378906 0)"/>
      <use xlink:href="#DejaVuSans-72" transform="translate(296.289062 0)"/>
      <use xlink:href="#DejaVuSans-75" transform="translate(337.402344 0)"/>
      <use xlink:href="#DejaVuSans-73" transform="translate(400.78125 0)"/>
      <use xlink:href="#DejaVuSans-6b" transform="translate(452.880859 0)"/>
      <use xlink:href="#DejaVuSans-61" transform="translate(509.041016 0)"/>
      <use xlink:href="#DejaVuSans-6c" transform="translate(570.320312 0)"/>
     </g>
    </g>
    <g id="line2d_87">
     <path d="M 81 107.205313 
L 91 107.205313 
L 101 107.205313 
" style="fill: none; stroke: #d62728; stroke-width: 1.5; stroke-linecap: square"/>
     <g>
      <use xlink:href="#mf3185e20d1" x="91" y="107.205313" style="fill: #d62728; stroke: #ffffff; stroke-width: 0.75"/>
     </g>
    </g>
    <g id="text_19">
     <!-- gen_wilson -->
     <g transform="translate(109 110.705313) scale(0.1 -0.1)">
      <defs>
       <path id="DejaVuSans-77" d="M 269 3500 
L 844 3500 
L 1563 769 
L 2278 3500 
L 2956 3500 
L 3675 769 
L 4391 3500 
L 4966 3500 
L 4050 0 
L 3372 0 
L 2619 2869 
L 1863 0 
L 1184 0 
L 269 3500 
z
" transform="scale(0.015625)"/>
      </defs>
      <use xlink:href="#DejaVuSans-67"/>
      <use xlink:href="#DejaVuSans-65" transform="translate(63.476562 0)"/>
      <use xlink:href="#DejaVuSans-6e" transform="translate(125 0)"/>
      <use xlink:href="#DejaVuSans-5f" transform="translate(188.378906 0)"/>
      <use xlink:href="#DejaVuSans-77" transform="translate(238.378906 0)"/>
      <use xlink:href="#DejaVuSans-69" transform="translate(320.166016 0)"/>
      <use xlink:href="#DejaVuSans-6c" transform="translate(347.949219 0)"/>
      <use xlink:href="#DejaVuSans-73" transform="translate(375.732422 0)"/>
      <use xlink:href="#DejaVuSans-6f" transform="translate(427.832031 0)"/>
      <use xlink:href="#DejaVuSans-6e" transform="translate(489.013672 0)"/>
     </g>
    </g>
    <g id="line2d_88">
     <path d="M 81 122.161563 
L 91 122.161563 
L 101 122.161563 
" style="fill: none; stroke: #9467bd; stroke-width: 1.5; stroke-linecap: square"/>
     <g>
      <use xlink:href="#mc14be382f1" x="91" y="122.161563" style="fill: #9467bd; stroke: #ffffff; stroke-width: 0.75"/>
     </g>
    </g>
    <g id="text_20">
     <!-- gen_recursive_division -->
     <g transform="translate(109 125.661563) scale(0.1 -0.1)">
      <use xlink:href="#DejaVuSans-67"/>
      <use xlink:href="#DejaVuSans-65" transform="translate(63.476562 0)"/>
      <use xlink:href="#DejaVuSans-6e" transform="translate(125 0)"/>
      <use xlink:href="#DejaVuSans-5f" transform="translate(188.378906 0)"/>
      <use xlink:href="#DejaVuSans-72" transform="translate(238.378906 0)"/>
      <use xlink:href="#DejaVuSans-65" transform="translate(277.242188 0)"/>
      <use xlink:href="#DejaVuSans-63" transform="translate(338.765625 0)"/>
      <use xlink:href="#DejaVuSans-75" transform="translate(393.746094 0)"/>
      <use xlink:href="#DejaVuSans-72" transform="translate(457.125 0)"/>
      <use xlink:href="#DejaVuSans-73" transform="translate(498.238281 0)"/>
      <use xlink:href="#DejaVuSans-69" transform="translate(550.337891 0)"/>
      <use xlink:href="#DejaVuSans-76" transform="translate(578.121094 0)"/>
      <use xlink:href="#DejaVuSans-65" transform="translate(637.300781 0)"/>
      <use xlink:href="#DejaVuSans-5f" transform="translate(698.824219 0)"/>
      <use xlink:href="#DejaVuSans-64" transform="translate(748.824219 0)"/>
      <use xlink:href="#DejaVuSans-69" transform="translate(812.300781 0)"/>
      <use xlink:href="#DejaVuSans-76" transform="translate(840.083984 0)"/>
      <use xlink:href="#DejaVuSans-69" transform="translate(899.263672 0)"/>
      <use xlink:href="#DejaVuSans-73" transform="translate(927.046875 0)"/>
      <use xlink:href="#DejaVuSans-69" transform="translate(979.146484 0)"/>
      <use xlink:href="#DejaVuSans-6f" transform="translate(1006.929688 0)"/>
      <use xlink:href="#DejaVuSans-6e" transform="translate(1068.111328 0)"/>
     </g>
    </g>
    <g id="line2d_89">
     <path d="M 81 137.117813 
L 91 137.117813 
L 101 137.117813 
" style="fill: none; stroke: #8c564b; stroke-width: 1.5; stroke-linecap: square"/>
     <g>
      <use xlink:href="#m0058e8c6aa" x="91" y="137.117813" style="fill: #8c564b; stroke: #ffffff; stroke-width: 0.75"/>
     </g>
    </g>
    <g id="text_21">
     <!-- gen_percolation -->
     <g transform="translate(109 140.617813) scale(0.1 -0.1)">
      <use xlink:href="#DejaVuSans-67"/>
      <use xlink:href="#DejaVuSans-65" transform="translate(63.476562 0)"/>
      <use xlink:href="#DejaVuSans-6e" transform="translate(125 0)"/>
      <use xlink:href="#DejaVuSans-5f" transform="translate(188.378906 0)"/>
      <use xlink:href="#DejaVuSans-70" transform="translate(238.378906 0)"/>
      <use xlink:href="#DejaVuSans-65" transform="translate(301.855469 0)"/>
      <use xlink:href="#DejaVuSans-72" transform="translate(363.378906 0)"/>
      <use xlink:href="#DejaVuSans-63" transform="translate(402.242188 0)"/>
      <use xlink:href="#DejaVuSans-6f" transform="translate(457.222656 0)"/>
      <use xlink:href="#DejaVuSans-6c" transform="translate(518.404297 0)"/>
      <use xlink:href="#DejaVuSans-61" transform="translate(546.1875 0)"/>
      <use xlink:href="#DejaVuSans-74" transform="translate(607.466797 0)"/>
      <use xlink:href="#DejaVuSans-69" transform="translate(646.675781 0)"/>
      <use xlink:href="#DejaVuSans-6f" transform="translate(674.458984 0)"/>
      <use xlink:href="#DejaVuSans-6e" transform="translate(735.640625 0)"/>
     </g>
    </g>
   </g>
  </g>
 </g>
 <defs>
  <clipPath id="pdba6f76814">
   <rect x="72" y="34.56" width="446.4" height="221.76"/>
  </clipPath>
 </defs>
</svg>
